<?xml version="1.0" standalone="no"?>
<!DOCTYPE svg PUBLIC "-//W3C//DTD SVG 20010904//EN"
 "http://www.w3.org/TR/2001/REC-SVG-20010904/DTD/svg10.dtd">
<svg version="1.0" xmlns="http://www.w3.org/2000/svg"
 width="626.000000pt" height="626.000000pt" viewBox="0 0 626.000000 626.000000"
 preserveAspectRatio="xMidYMid meet">

<g transform="translate(0.000000,626.000000) scale(0.100000,-0.100000)"
fill="#000000" stroke="none">
<path d="M3020 6034 c-471 -51 -859 -185 -1210 -419 -142 -95 -225 -160 -331
-259 -423 -394 -695 -891 -798 -1458 -100 -544 -2 -1149 265 -1653 l53 -101
-475 -474 c-525 -525 -524 -524 -524 -640 0 -115 16 -138 339 -461 169 -168
306 -297 334 -314 36 -20 66 -29 116 -33 129 -9 115 -20 656 519 l480 479 55
-30 c268 -146 491 -223 835 -290 206 -40 634 -40 840 0 165 32 222 45 325 77
260 79 512 199 705 335 22 16 51 36 65 46 104 69 357 305 456 422 416 497 631
1113 611 1750 -21 652 -279 1261 -732 1728 -385 397 -880 655 -1435 747 -126
21 -196 27 -375 30 -121 2 -236 1 -255 -1z m-942 -3733 c456 -457 828 -832
826 -834 -7 -7 -143 22 -239 50 -184 53 -388 149 -558 260 -56 37 -124 73
-152 81 -61 16 -132 9 -189 -19 -26 -14 -204 -184 -498 -477 l-457 -456 -49
45 c-90 82 -130 25 381 538 499 501 499 501 500 615 1 78 -10 106 -89 227
-141 216 -246 464 -294 690 -21 100 -22 109 -16 109 2 0 377 -373 834 -829z"/>
<path d="M5466 1494 c-171 -37 -342 -173 -428 -339 -88 -172 -89 -397 -1 -570
85 -166 213 -277 388 -336 100 -34 279 -34 380 -1 197 66 356 222 426 417 30
84 37 256 15 345 -61 239 -255 433 -483 484 -88 20 -205 19 -297 0z"/>
</g>
</svg>
